<mxfile host="Electron" agent="Mozilla/5.0 (Windows NT 10.0; Win64; x64) AppleWebKit/537.36 (KHTML, like Gecko) draw.io/24.7.5 Chrome/126.0.6478.183 Electron/31.3.0 Safari/537.36" version="24.7.5" pages="3">
  <diagram id="MJ8tSPudCheSV-Sa3wuF" name="Class Diagram">
    <mxGraphModel dx="2087" dy="993" grid="0" gridSize="10" guides="1" tooltips="1" connect="1" arrows="1" fold="1" page="0" pageScale="1" pageWidth="850" pageHeight="1100" math="0" shadow="0">
      <root>
        <mxCell id="0" />
        <mxCell id="1" parent="0" />
        <mxCell id="39z7OcEjKNCnxrWsOGxc-9" style="edgeStyle=orthogonalEdgeStyle;rounded=0;orthogonalLoop=1;jettySize=auto;html=1;endArrow=oval;endFill=1;startArrow=diamondThin;startFill=0;targetPerimeterSpacing=3;jumpSize=4;strokeWidth=1;sourcePerimeterSpacing=0;startSize=13;endSize=9;" parent="1" source="39z7OcEjKNCnxrWsOGxc-1" target="39z7OcEjKNCnxrWsOGxc-5" edge="1">
          <mxGeometry relative="1" as="geometry" />
        </mxCell>
        <mxCell id="39z7OcEjKNCnxrWsOGxc-1" value="System Manager&lt;div&gt;(Singleton)&lt;/div&gt;" style="swimlane;fontStyle=0;childLayout=stackLayout;horizontal=1;startSize=30;horizontalStack=0;resizeParent=1;resizeParentMax=0;resizeLast=0;collapsible=1;marginBottom=0;whiteSpace=wrap;html=1;" parent="1" vertex="1">
          <mxGeometry x="193" y="295" width="188" height="150" as="geometry" />
        </mxCell>
        <mxCell id="39z7OcEjKNCnxrWsOGxc-2" value="Get Instance()" style="text;strokeColor=none;fillColor=none;align=left;verticalAlign=middle;spacingLeft=4;spacingRight=4;overflow=hidden;points=[[0,0.5],[1,0.5]];portConstraint=eastwest;rotatable=0;whiteSpace=wrap;html=1;" parent="39z7OcEjKNCnxrWsOGxc-1" vertex="1">
          <mxGeometry y="30" width="188" height="30" as="geometry" />
        </mxCell>
        <mxCell id="39z7OcEjKNCnxrWsOGxc-10" value="Events" style="swimlane;fontStyle=0;childLayout=stackLayout;horizontal=1;startSize=30;horizontalStack=0;resizeParent=1;resizeParentMax=0;resizeLast=0;collapsible=1;marginBottom=0;whiteSpace=wrap;html=1;" parent="39z7OcEjKNCnxrWsOGxc-1" vertex="1" collapsed="1">
          <mxGeometry y="60" width="188" height="30" as="geometry">
            <mxRectangle y="60" width="188" height="150" as="alternateBounds" />
          </mxGeometry>
        </mxCell>
        <mxCell id="39z7OcEjKNCnxrWsOGxc-11" value="Add System Script(Observer*)" style="text;strokeColor=#d6b656;fillColor=#fff2cc;align=left;verticalAlign=middle;spacingLeft=4;spacingRight=4;overflow=hidden;points=[[0,0.5],[1,0.5]];portConstraint=eastwest;rotatable=0;whiteSpace=wrap;html=1;" parent="39z7OcEjKNCnxrWsOGxc-10" vertex="1">
          <mxGeometry y="30" width="188" height="30" as="geometry" />
        </mxCell>
        <mxCell id="39z7OcEjKNCnxrWsOGxc-63" value="Update System Scripts()" style="text;strokeColor=#d6b656;fillColor=#fff2cc;align=left;verticalAlign=middle;spacingLeft=4;spacingRight=4;overflow=hidden;points=[[0,0.5],[1,0.5]];portConstraint=eastwest;rotatable=0;whiteSpace=wrap;html=1;" parent="39z7OcEjKNCnxrWsOGxc-10" vertex="1">
          <mxGeometry y="60" width="188" height="30" as="geometry" />
        </mxCell>
        <mxCell id="39z7OcEjKNCnxrWsOGxc-64" value="Add Game Script(Observer*)" style="text;strokeColor=#d79b00;fillColor=#ffe6cc;align=left;verticalAlign=middle;spacingLeft=4;spacingRight=4;overflow=hidden;points=[[0,0.5],[1,0.5]];portConstraint=eastwest;rotatable=0;whiteSpace=wrap;html=1;" parent="39z7OcEjKNCnxrWsOGxc-10" vertex="1">
          <mxGeometry y="90" width="188" height="30" as="geometry" />
        </mxCell>
        <mxCell id="39z7OcEjKNCnxrWsOGxc-12" value="Update Game Scripts()" style="text;strokeColor=#d79b00;fillColor=#ffe6cc;align=left;verticalAlign=middle;spacingLeft=4;spacingRight=4;overflow=hidden;points=[[0,0.5],[1,0.5]];portConstraint=eastwest;rotatable=0;whiteSpace=wrap;html=1;" parent="39z7OcEjKNCnxrWsOGxc-10" vertex="1">
          <mxGeometry y="120" width="188" height="30" as="geometry" />
        </mxCell>
        <mxCell id="2lU-8-Dn_B7P9K33SPBT-2" value="Window" style="swimlane;fontStyle=0;childLayout=stackLayout;horizontal=1;startSize=30;horizontalStack=0;resizeParent=1;resizeParentMax=0;resizeLast=0;collapsible=1;marginBottom=0;whiteSpace=wrap;html=1;" vertex="1" collapsed="1" parent="39z7OcEjKNCnxrWsOGxc-1">
          <mxGeometry y="90" width="188" height="30" as="geometry">
            <mxRectangle y="90" width="188" height="90" as="alternateBounds" />
          </mxGeometry>
        </mxCell>
        <mxCell id="2lU-8-Dn_B7P9K33SPBT-3" value="SetMainWindow(sf::window)" style="text;strokeColor=none;fillColor=none;align=left;verticalAlign=middle;spacingLeft=4;spacingRight=4;overflow=hidden;points=[[0,0.5],[1,0.5]];portConstraint=eastwest;rotatable=0;whiteSpace=wrap;html=1;" vertex="1" parent="2lU-8-Dn_B7P9K33SPBT-2">
          <mxGeometry y="30" width="188" height="30" as="geometry" />
        </mxCell>
        <mxCell id="2lU-8-Dn_B7P9K33SPBT-4" value="GetMainWindow()" style="text;strokeColor=none;fillColor=none;align=left;verticalAlign=middle;spacingLeft=4;spacingRight=4;overflow=hidden;points=[[0,0.5],[1,0.5]];portConstraint=eastwest;rotatable=0;whiteSpace=wrap;html=1;" vertex="1" parent="2lU-8-Dn_B7P9K33SPBT-2">
          <mxGeometry y="60" width="188" height="30" as="geometry" />
        </mxCell>
        <mxCell id="39z7OcEjKNCnxrWsOGxc-4" value="Print System Infomation()" style="text;strokeColor=none;fillColor=none;align=left;verticalAlign=middle;spacingLeft=4;spacingRight=4;overflow=hidden;points=[[0,0.5],[1,0.5]];portConstraint=eastwest;rotatable=0;whiteSpace=wrap;html=1;" parent="39z7OcEjKNCnxrWsOGxc-1" vertex="1">
          <mxGeometry y="120" width="188" height="30" as="geometry" />
        </mxCell>
        <mxCell id="39z7OcEjKNCnxrWsOGxc-66" style="edgeStyle=orthogonalEdgeStyle;rounded=0;orthogonalLoop=1;jettySize=auto;html=1;endArrow=oval;endFill=1;startArrow=diamondThin;startFill=0;startSize=13;endSize=9;" parent="1" source="39z7OcEjKNCnxrWsOGxc-5" target="39z7OcEjKNCnxrWsOGxc-17" edge="1">
          <mxGeometry relative="1" as="geometry" />
        </mxCell>
        <mxCell id="39z7OcEjKNCnxrWsOGxc-5" value="Event" style="swimlane;fontStyle=0;childLayout=stackLayout;horizontal=1;startSize=30;horizontalStack=0;resizeParent=1;resizeParentMax=0;resizeLast=0;collapsible=1;marginBottom=0;whiteSpace=wrap;html=1;" parent="1" vertex="1">
          <mxGeometry x="469" y="295" width="140" height="120" as="geometry" />
        </mxCell>
        <mxCell id="39z7OcEjKNCnxrWsOGxc-6" value="Trigger(Params ...)" style="text;strokeColor=none;fillColor=none;align=left;verticalAlign=middle;spacingLeft=4;spacingRight=4;overflow=hidden;points=[[0,0.5],[1,0.5]];portConstraint=eastwest;rotatable=0;whiteSpace=wrap;html=1;" parent="39z7OcEjKNCnxrWsOGxc-5" vertex="1">
          <mxGeometry y="30" width="140" height="30" as="geometry" />
        </mxCell>
        <mxCell id="39z7OcEjKNCnxrWsOGxc-7" value="Add Observer" style="text;strokeColor=none;fillColor=none;align=left;verticalAlign=middle;spacingLeft=4;spacingRight=4;overflow=hidden;points=[[0,0.5],[1,0.5]];portConstraint=eastwest;rotatable=0;whiteSpace=wrap;html=1;" parent="39z7OcEjKNCnxrWsOGxc-5" vertex="1">
          <mxGeometry y="60" width="140" height="30" as="geometry" />
        </mxCell>
        <mxCell id="39z7OcEjKNCnxrWsOGxc-8" value="Remove Observer" style="text;strokeColor=none;fillColor=none;align=left;verticalAlign=middle;spacingLeft=4;spacingRight=4;overflow=hidden;points=[[0,0.5],[1,0.5]];portConstraint=eastwest;rotatable=0;whiteSpace=wrap;html=1;" parent="39z7OcEjKNCnxrWsOGxc-5" vertex="1">
          <mxGeometry y="90" width="140" height="30" as="geometry" />
        </mxCell>
        <mxCell id="39z7OcEjKNCnxrWsOGxc-14" value="&lt;h1 style=&quot;margin-top: 0px;&quot;&gt;System Manager&lt;/h1&gt;&lt;p&gt;&lt;br&gt;&lt;/p&gt;" style="text;html=1;whiteSpace=wrap;overflow=hidden;rounded=0;" parent="1" vertex="1">
          <mxGeometry x="-62" y="287" width="233" height="120" as="geometry" />
        </mxCell>
        <mxCell id="39z7OcEjKNCnxrWsOGxc-17" value="Observer" style="swimlane;fontStyle=0;childLayout=stackLayout;horizontal=1;startSize=30;horizontalStack=0;resizeParent=1;resizeParentMax=0;resizeLast=0;collapsible=1;marginBottom=0;whiteSpace=wrap;html=1;" parent="1" vertex="1">
          <mxGeometry x="734" y="295" width="167" height="120" as="geometry">
            <mxRectangle x="885" y="202" width="84" height="30" as="alternateBounds" />
          </mxGeometry>
        </mxCell>
        <mxCell id="39z7OcEjKNCnxrWsOGxc-18" value="Event Trigger(Params ...)" style="text;strokeColor=none;fillColor=none;align=left;verticalAlign=middle;spacingLeft=4;spacingRight=4;overflow=hidden;points=[[0,0.5],[1,0.5]];portConstraint=eastwest;rotatable=0;whiteSpace=wrap;html=1;" parent="39z7OcEjKNCnxrWsOGxc-17" vertex="1">
          <mxGeometry y="30" width="167" height="30" as="geometry" />
        </mxCell>
        <mxCell id="39z7OcEjKNCnxrWsOGxc-19" value="Item 2" style="text;strokeColor=none;fillColor=none;align=left;verticalAlign=middle;spacingLeft=4;spacingRight=4;overflow=hidden;points=[[0,0.5],[1,0.5]];portConstraint=eastwest;rotatable=0;whiteSpace=wrap;html=1;" parent="39z7OcEjKNCnxrWsOGxc-17" vertex="1">
          <mxGeometry y="60" width="167" height="30" as="geometry" />
        </mxCell>
        <mxCell id="39z7OcEjKNCnxrWsOGxc-20" value="Item 3" style="text;strokeColor=none;fillColor=none;align=left;verticalAlign=middle;spacingLeft=4;spacingRight=4;overflow=hidden;points=[[0,0.5],[1,0.5]];portConstraint=eastwest;rotatable=0;whiteSpace=wrap;html=1;" parent="39z7OcEjKNCnxrWsOGxc-17" vertex="1">
          <mxGeometry y="90" width="167" height="30" as="geometry" />
        </mxCell>
        <mxCell id="39z7OcEjKNCnxrWsOGxc-25" value="Function Event" style="swimlane;fontStyle=0;childLayout=stackLayout;horizontal=1;startSize=30;horizontalStack=0;resizeParent=1;resizeParentMax=0;resizeLast=0;collapsible=1;marginBottom=0;whiteSpace=wrap;html=1;" parent="1" vertex="1">
          <mxGeometry x="1309" y="448" width="214" height="120" as="geometry" />
        </mxCell>
        <mxCell id="39z7OcEjKNCnxrWsOGxc-28" value="Trigger(Params...)" style="text;strokeColor=none;fillColor=none;align=left;verticalAlign=middle;spacingLeft=4;spacingRight=4;overflow=hidden;points=[[0,0.5],[1,0.5]];portConstraint=eastwest;rotatable=0;whiteSpace=wrap;html=1;" parent="39z7OcEjKNCnxrWsOGxc-25" vertex="1">
          <mxGeometry y="30" width="214" height="30" as="geometry" />
        </mxCell>
        <mxCell id="39z7OcEjKNCnxrWsOGxc-26" value="Add Function((*ptr)(Params...))" style="text;strokeColor=none;fillColor=none;align=left;verticalAlign=middle;spacingLeft=4;spacingRight=4;overflow=hidden;points=[[0,0.5],[1,0.5]];portConstraint=eastwest;rotatable=0;whiteSpace=wrap;html=1;" parent="39z7OcEjKNCnxrWsOGxc-25" vertex="1">
          <mxGeometry y="60" width="214" height="30" as="geometry" />
        </mxCell>
        <mxCell id="39z7OcEjKNCnxrWsOGxc-27" value="Remove Function((*ptr)(Params...))" style="text;strokeColor=none;fillColor=none;align=left;verticalAlign=middle;spacingLeft=4;spacingRight=4;overflow=hidden;points=[[0,0.5],[1,0.5]];portConstraint=eastwest;rotatable=0;whiteSpace=wrap;html=1;" parent="39z7OcEjKNCnxrWsOGxc-25" vertex="1">
          <mxGeometry y="90" width="214" height="30" as="geometry" />
        </mxCell>
        <mxCell id="kWHNyYj-Nq5nqHmV5_2z-1" value="Calls AddGameScript(&lt;i&gt;this&lt;/i&gt;)" style="edgeStyle=orthogonalEdgeStyle;rounded=0;orthogonalLoop=1;jettySize=auto;html=1;" parent="1" source="39z7OcEjKNCnxrWsOGxc-29" target="39z7OcEjKNCnxrWsOGxc-1" edge="1">
          <mxGeometry relative="1" as="geometry" />
        </mxCell>
        <mxCell id="39z7OcEjKNCnxrWsOGxc-29" value="Runtime Script" style="swimlane;fontStyle=0;childLayout=stackLayout;horizontal=1;startSize=30;horizontalStack=0;resizeParent=1;resizeParentMax=0;resizeLast=0;collapsible=1;marginBottom=0;whiteSpace=wrap;html=1;" parent="1" vertex="1">
          <mxGeometry x="731.5" y="527" width="172" height="120" as="geometry">
            <mxRectangle x="1031" y="280" width="114" height="30" as="alternateBounds" />
          </mxGeometry>
        </mxCell>
        <mxCell id="39z7OcEjKNCnxrWsOGxc-30" value="Event Trigger()" style="text;strokeColor=none;fillColor=none;align=left;verticalAlign=middle;spacingLeft=4;spacingRight=4;overflow=hidden;points=[[0,0.5],[1,0.5]];portConstraint=eastwest;rotatable=0;whiteSpace=wrap;html=1;" parent="39z7OcEjKNCnxrWsOGxc-29" vertex="1">
          <mxGeometry y="30" width="172" height="30" as="geometry" />
        </mxCell>
        <mxCell id="39z7OcEjKNCnxrWsOGxc-31" value="Virtual Start()" style="text;strokeColor=none;fillColor=none;align=left;verticalAlign=middle;spacingLeft=4;spacingRight=4;overflow=hidden;points=[[0,0.5],[1,0.5]];portConstraint=eastwest;rotatable=0;whiteSpace=wrap;html=1;" parent="39z7OcEjKNCnxrWsOGxc-29" vertex="1">
          <mxGeometry y="60" width="172" height="30" as="geometry" />
        </mxCell>
        <mxCell id="39z7OcEjKNCnxrWsOGxc-32" value="Virtual Update()" style="text;strokeColor=none;fillColor=none;align=left;verticalAlign=middle;spacingLeft=4;spacingRight=4;overflow=hidden;points=[[0,0.5],[1,0.5]];portConstraint=eastwest;rotatable=0;whiteSpace=wrap;html=1;" parent="39z7OcEjKNCnxrWsOGxc-29" vertex="1">
          <mxGeometry y="90" width="172" height="30" as="geometry" />
        </mxCell>
        <mxCell id="39z7OcEjKNCnxrWsOGxc-34" value="Extends" style="endArrow=block;endSize=16;endFill=0;html=1;rounded=0;edgeStyle=orthogonalEdgeStyle;entryX=0.5;entryY=1;entryDx=0;entryDy=0;" parent="1" source="39z7OcEjKNCnxrWsOGxc-29" target="39z7OcEjKNCnxrWsOGxc-17" edge="1">
          <mxGeometry width="160" relative="1" as="geometry">
            <mxPoint x="934" y="506" as="sourcePoint" />
            <mxPoint x="897" y="455" as="targetPoint" />
          </mxGeometry>
        </mxCell>
        <mxCell id="39z7OcEjKNCnxrWsOGxc-36" value="" style="endArrow=none;dashed=1;html=1;dashPattern=1 3;strokeWidth=2;rounded=0;exitX=1;exitY=0.5;exitDx=0;exitDy=0;edgeStyle=orthogonalEdgeStyle;entryX=0;entryY=0.5;entryDx=0;entryDy=0;" parent="1" source="39z7OcEjKNCnxrWsOGxc-30" target="39z7OcEjKNCnxrWsOGxc-42" edge="1">
          <mxGeometry width="50" height="50" relative="1" as="geometry">
            <mxPoint x="1225" y="548" as="sourcePoint" />
            <mxPoint x="1306" y="501" as="targetPoint" />
          </mxGeometry>
        </mxCell>
        <mxCell id="39z7OcEjKNCnxrWsOGxc-42" value="&lt;b&gt;Implementation:&lt;/b&gt;" style="swimlane;fontStyle=0;childLayout=stackLayout;horizontal=1;startSize=30;horizontalStack=0;resizeParent=1;resizeParentMax=0;resizeLast=0;collapsible=1;marginBottom=0;whiteSpace=wrap;html=1;" parent="1" vertex="1">
          <mxGeometry x="992" y="557" width="140" height="60" as="geometry">
            <mxRectangle x="992" y="557" width="128" height="30" as="alternateBounds" />
          </mxGeometry>
        </mxCell>
        <mxCell id="39z7OcEjKNCnxrWsOGxc-43" value="This calls Start() and Update()" style="text;strokeColor=none;fillColor=none;align=left;verticalAlign=middle;spacingLeft=4;spacingRight=4;overflow=hidden;points=[[0,0.5],[1,0.5]];portConstraint=eastwest;rotatable=0;whiteSpace=wrap;html=1;" parent="39z7OcEjKNCnxrWsOGxc-42" vertex="1">
          <mxGeometry y="30" width="140" height="30" as="geometry" />
        </mxCell>
        <mxCell id="39z7OcEjKNCnxrWsOGxc-46" value="How to add a script:" style="swimlane;whiteSpace=wrap;html=1;" parent="1" vertex="1">
          <mxGeometry x="731.5" y="655" width="464" height="458" as="geometry">
            <mxRectangle x="1460" y="247" width="141" height="26" as="alternateBounds" />
          </mxGeometry>
        </mxCell>
        <mxCell id="39z7OcEjKNCnxrWsOGxc-49" value="&lt;b&gt;Steps:&lt;/b&gt;" style="swimlane;fontStyle=0;childLayout=stackLayout;horizontal=1;startSize=30;horizontalStack=0;resizeParent=1;resizeParentMax=0;resizeLast=0;collapsible=1;marginBottom=0;whiteSpace=wrap;html=1;" parent="39z7OcEjKNCnxrWsOGxc-46" vertex="1">
          <mxGeometry x="15" y="237" width="170" height="206" as="geometry" />
        </mxCell>
        <mxCell id="39z7OcEjKNCnxrWsOGxc-50" value="&lt;u&gt;Step 1: &lt;/u&gt;Create a new class that inherits &lt;i&gt;Runtime Script&lt;/i&gt;" style="text;strokeColor=none;fillColor=none;align=left;verticalAlign=middle;spacingLeft=4;spacingRight=4;overflow=hidden;points=[[0,0.5],[1,0.5]];portConstraint=eastwest;rotatable=0;whiteSpace=wrap;html=1;" parent="39z7OcEjKNCnxrWsOGxc-49" vertex="1">
          <mxGeometry y="30" width="170" height="30" as="geometry" />
        </mxCell>
        <mxCell id="39z7OcEjKNCnxrWsOGxc-51" value="&lt;u&gt;Step 2:&lt;/u&gt; Overide the Start() and Update Functions" style="text;strokeColor=none;fillColor=none;align=left;verticalAlign=middle;spacingLeft=4;spacingRight=4;overflow=hidden;points=[[0,0.5],[1,0.5]];portConstraint=eastwest;rotatable=0;whiteSpace=wrap;html=1;" parent="39z7OcEjKNCnxrWsOGxc-49" vertex="1">
          <mxGeometry y="60" width="170" height="30" as="geometry" />
        </mxCell>
        <mxCell id="39z7OcEjKNCnxrWsOGxc-52" value="&lt;u&gt;Step 3: &lt;/u&gt;Initialize your class into the heap.&lt;div&gt;&lt;b&gt;Don&#39;t&lt;/b&gt; add it to &lt;i&gt;System Manager.Add Game Script(My class*) &lt;/i&gt;because the RuntimeScript will add itself to the system manager&lt;/div&gt;" style="text;strokeColor=none;fillColor=none;align=left;verticalAlign=middle;spacingLeft=4;spacingRight=4;overflow=hidden;points=[[0,0.5],[1,0.5]];portConstraint=eastwest;rotatable=0;whiteSpace=wrap;html=1;" parent="39z7OcEjKNCnxrWsOGxc-49" vertex="1">
          <mxGeometry y="90" width="170" height="116" as="geometry" />
        </mxCell>
        <mxCell id="39z7OcEjKNCnxrWsOGxc-56" style="edgeStyle=orthogonalEdgeStyle;rounded=0;orthogonalLoop=1;jettySize=auto;html=1;exitX=1;exitY=0.5;exitDx=0;exitDy=0;dashed=1;dashPattern=8 8;endArrow=none;endFill=0;entryX=-0.021;entryY=0.067;entryDx=0;entryDy=0;entryPerimeter=0;" parent="39z7OcEjKNCnxrWsOGxc-46" source="39z7OcEjKNCnxrWsOGxc-50" target="39z7OcEjKNCnxrWsOGxc-57" edge="1">
          <mxGeometry relative="1" as="geometry">
            <mxPoint x="262" y="252" as="targetPoint" />
          </mxGeometry>
        </mxCell>
        <mxCell id="39z7OcEjKNCnxrWsOGxc-57" value="My Class: &lt;i&gt;Runtime Script&lt;/i&gt;" style="swimlane;fontStyle=0;childLayout=stackLayout;horizontal=1;startSize=30;horizontalStack=0;resizeParent=1;resizeParentMax=0;resizeLast=0;collapsible=1;marginBottom=0;whiteSpace=wrap;html=1;" parent="39z7OcEjKNCnxrWsOGxc-46" vertex="1">
          <mxGeometry x="274" y="227" width="175" height="120" as="geometry" />
        </mxCell>
        <mxCell id="39z7OcEjKNCnxrWsOGxc-58" value="Start() {&lt;i&gt;Insert Logic&lt;/i&gt;}" style="text;strokeColor=none;fillColor=none;align=left;verticalAlign=middle;spacingLeft=4;spacingRight=4;overflow=hidden;points=[[0,0.5],[1,0.5]];portConstraint=eastwest;rotatable=0;whiteSpace=wrap;html=1;" parent="39z7OcEjKNCnxrWsOGxc-57" vertex="1">
          <mxGeometry y="30" width="175" height="30" as="geometry" />
        </mxCell>
        <mxCell id="39z7OcEjKNCnxrWsOGxc-59" value="Update() {&lt;i&gt;Insert Logic&lt;/i&gt;}" style="text;strokeColor=none;fillColor=none;align=left;verticalAlign=middle;spacingLeft=4;spacingRight=4;overflow=hidden;points=[[0,0.5],[1,0.5]];portConstraint=eastwest;rotatable=0;whiteSpace=wrap;html=1;" parent="39z7OcEjKNCnxrWsOGxc-57" vertex="1">
          <mxGeometry y="60" width="175" height="30" as="geometry" />
        </mxCell>
        <mxCell id="39z7OcEjKNCnxrWsOGxc-60" value="Item 3" style="text;strokeColor=none;fillColor=none;align=left;verticalAlign=middle;spacingLeft=4;spacingRight=4;overflow=hidden;points=[[0,0.5],[1,0.5]];portConstraint=eastwest;rotatable=0;whiteSpace=wrap;html=1;" parent="39z7OcEjKNCnxrWsOGxc-57" vertex="1">
          <mxGeometry y="90" width="175" height="30" as="geometry" />
        </mxCell>
        <mxCell id="39z7OcEjKNCnxrWsOGxc-61" style="edgeStyle=orthogonalEdgeStyle;rounded=0;orthogonalLoop=1;jettySize=auto;html=1;exitX=1;exitY=0.5;exitDx=0;exitDy=0;entryX=0;entryY=0.5;entryDx=0;entryDy=0;" parent="39z7OcEjKNCnxrWsOGxc-46" source="39z7OcEjKNCnxrWsOGxc-51" target="39z7OcEjKNCnxrWsOGxc-58" edge="1">
          <mxGeometry relative="1" as="geometry">
            <Array as="points">
              <mxPoint x="245" y="312" />
              <mxPoint x="245" y="272" />
            </Array>
          </mxGeometry>
        </mxCell>
        <mxCell id="39z7OcEjKNCnxrWsOGxc-62" style="edgeStyle=orthogonalEdgeStyle;rounded=0;orthogonalLoop=1;jettySize=auto;html=1;exitX=1;exitY=0.5;exitDx=0;exitDy=0;entryX=0;entryY=0.5;entryDx=0;entryDy=0;" parent="39z7OcEjKNCnxrWsOGxc-46" source="39z7OcEjKNCnxrWsOGxc-51" target="39z7OcEjKNCnxrWsOGxc-59" edge="1">
          <mxGeometry relative="1" as="geometry">
            <Array as="points">
              <mxPoint x="244" y="312" />
              <mxPoint x="244" y="302" />
            </Array>
          </mxGeometry>
        </mxCell>
        <mxCell id="39z7OcEjKNCnxrWsOGxc-65" value="&lt;p style=&quot;margin-top: 0px;&quot;&gt;&lt;/p&gt;&lt;h1 style=&quot;font-size: 24px; margin-top: 0px; margin-bottom: 0px; line-height: 120%;&quot;&gt;What does this do?&lt;/h1&gt;This allows a class you&#39;ve made to get called a &lt;i&gt;Update &lt;/i&gt;method and a &lt;i&gt;Start &lt;/i&gt;method.&lt;p&gt;&lt;/p&gt;&lt;p&gt;&lt;b&gt;Start Method&lt;br&gt;&lt;/b&gt;This method only get&#39;s called at the first frame of the program.&lt;/p&gt;&lt;p&gt;&lt;b&gt;Update Method&lt;br&gt;&lt;/b&gt;This method get&#39;s called every frame of the program&lt;/p&gt;&lt;p&gt;&lt;span style=&quot;background-color: initial; color: rgba(0, 0, 0, 0); font-family: monospace; font-size: 0px; text-wrap: nowrap;&quot;&gt;gdfgdfgThis%3CmxGraphModel%3E%3Croot%3E%3CmxCell%20id%3D%220%22%2F%3E%3CmxCell%20id%3D%221%22%20parent%3D%220%22%2F%3E%3CmxCell%20id%3D%222%22%20value%3D%22Update%20System%20Scripts()%22%20style%3D%22text%3BstrokeColor%3Dnone%3BfillColor%3Dnone%3Balign%3Dleft%3BverticalAlign%3Dmiddle%3BspacingLeft%3D4%3BspacingRight%3D4%3Boverflow%3Dhidden%3Bpoints%3D%5B%5B0%2C0.5%5D%2C%5B1%2C0.5%5D%5D%3BportConstraint%3Deastwest%3Brotatable%3D0%3BwhiteSpace%3Dwrap%3Bhtml%3D1%3B%22%20vertex%3D%221%22%20parent%3D%221%22%3E%3CmxGeometry%20x%3D%22215%22%20y%3D%22385%22%20width%3D%22166%22%20height%3D%2230%22%20as%3D%22geometry%22%2F%3E%3C%2FmxCell%3E%3C%2Froot%3E%3C%2FmxGraphModel%3&lt;/span&gt;&lt;br&gt;&lt;/p&gt;" style="text;html=1;whiteSpace=wrap;overflow=hidden;rounded=0;container=0;fixedWidth=0;" parent="39z7OcEjKNCnxrWsOGxc-46" vertex="1">
          <mxGeometry y="23" width="234" height="210" as="geometry" />
        </mxCell>
        <mxCell id="39z7OcEjKNCnxrWsOGxc-67" style="edgeStyle=orthogonalEdgeStyle;rounded=0;orthogonalLoop=1;jettySize=auto;html=1;" parent="1" source="39z7OcEjKNCnxrWsOGxc-30" target="39z7OcEjKNCnxrWsOGxc-5" edge="1">
          <mxGeometry relative="1" as="geometry" />
        </mxCell>
        <mxCell id="39z7OcEjKNCnxrWsOGxc-69" value="Shader" style="swimlane;fontStyle=0;childLayout=stackLayout;horizontal=1;startSize=30;horizontalStack=0;resizeParent=1;resizeParentMax=0;resizeLast=0;collapsible=1;marginBottom=0;whiteSpace=wrap;html=1;" parent="1" vertex="1">
          <mxGeometry x="1309" y="295" width="201" height="90" as="geometry" />
        </mxCell>
        <mxCell id="39z7OcEjKNCnxrWsOGxc-70" value="Shader(code file path, shader type)" style="text;strokeColor=none;fillColor=none;align=left;verticalAlign=middle;spacingLeft=4;spacingRight=4;overflow=hidden;points=[[0,0.5],[1,0.5]];portConstraint=eastwest;rotatable=0;whiteSpace=wrap;html=1;" parent="39z7OcEjKNCnxrWsOGxc-69" vertex="1">
          <mxGeometry y="30" width="201" height="30" as="geometry" />
        </mxCell>
        <mxCell id="39z7OcEjKNCnxrWsOGxc-71" value="Get Id()" style="text;strokeColor=none;fillColor=none;align=left;verticalAlign=middle;spacingLeft=4;spacingRight=4;overflow=hidden;points=[[0,0.5],[1,0.5]];portConstraint=eastwest;rotatable=0;whiteSpace=wrap;html=1;" parent="39z7OcEjKNCnxrWsOGxc-69" vertex="1">
          <mxGeometry y="60" width="201" height="30" as="geometry" />
        </mxCell>
      </root>
    </mxGraphModel>
  </diagram>
  <diagram id="0rcxHAD8Nlptb7hMOAvv" name="Data Diagram">
    <mxGraphModel dx="4634" dy="1244" grid="0" gridSize="10" guides="1" tooltips="1" connect="1" arrows="1" fold="1" page="0" pageScale="1" pageWidth="850" pageHeight="1100" math="0" shadow="0">
      <root>
        <mxCell id="0" />
        <mxCell id="1" parent="0" />
        <mxCell id="Qt960FSY2KIb_zL32n8V-27" value="Window Data" style="rounded=0;whiteSpace=wrap;html=1;" parent="1" vertex="1">
          <mxGeometry x="-2508" y="147" width="120" height="60" as="geometry" />
        </mxCell>
        <mxCell id="Qt960FSY2KIb_zL32n8V-32" style="edgeStyle=orthogonalEdgeStyle;rounded=0;orthogonalLoop=1;jettySize=auto;html=1;exitX=1;exitY=0.5;exitDx=0;exitDy=0;entryX=0;entryY=0.5;entryDx=0;entryDy=0;" parent="1" source="Qt960FSY2KIb_zL32n8V-30" target="Qt960FSY2KIb_zL32n8V-31" edge="1">
          <mxGeometry relative="1" as="geometry" />
        </mxCell>
        <mxCell id="oE3sUrrEDgutj43f_jL4-3" style="edgeStyle=orthogonalEdgeStyle;rounded=0;orthogonalLoop=1;jettySize=auto;html=1;exitX=1;exitY=0.5;exitDx=0;exitDy=0;entryX=0;entryY=0.5;entryDx=0;entryDy=0;" parent="1" source="Qt960FSY2KIb_zL32n8V-30" target="oE3sUrrEDgutj43f_jL4-2" edge="1">
          <mxGeometry relative="1" as="geometry" />
        </mxCell>
        <mxCell id="Qt960FSY2KIb_zL32n8V-30" value="Window" style="rounded=0;whiteSpace=wrap;html=1;" parent="1" vertex="1">
          <mxGeometry x="-2282" y="70" width="120" height="60" as="geometry" />
        </mxCell>
        <mxCell id="Qt960FSY2KIb_zL32n8V-31" value="Settings" style="rounded=0;whiteSpace=wrap;html=1;" parent="1" vertex="1">
          <mxGeometry x="-2108" y="70" width="120" height="60" as="geometry" />
        </mxCell>
        <mxCell id="Qt960FSY2KIb_zL32n8V-43" style="edgeStyle=orthogonalEdgeStyle;rounded=0;orthogonalLoop=1;jettySize=auto;html=1;exitX=1;exitY=0.5;exitDx=0;exitDy=0;entryX=0;entryY=0.5;entryDx=0;entryDy=0;" parent="1" source="Qt960FSY2KIb_zL32n8V-40" target="Qt960FSY2KIb_zL32n8V-42" edge="1">
          <mxGeometry relative="1" as="geometry" />
        </mxCell>
        <mxCell id="Qt960FSY2KIb_zL32n8V-55" style="edgeStyle=orthogonalEdgeStyle;rounded=0;orthogonalLoop=1;jettySize=auto;html=1;exitX=1;exitY=0.5;exitDx=0;exitDy=0;entryX=0;entryY=0.5;entryDx=0;entryDy=0;" parent="1" source="Qt960FSY2KIb_zL32n8V-40" target="Qt960FSY2KIb_zL32n8V-54" edge="1">
          <mxGeometry relative="1" as="geometry" />
        </mxCell>
        <mxCell id="Qt960FSY2KIb_zL32n8V-40" value="Render Components" style="rounded=0;whiteSpace=wrap;html=1;" parent="1" vertex="1">
          <mxGeometry x="-3097" y="359" width="120" height="60" as="geometry" />
        </mxCell>
        <mxCell id="Qt960FSY2KIb_zL32n8V-45" style="edgeStyle=orthogonalEdgeStyle;rounded=0;orthogonalLoop=1;jettySize=auto;html=1;exitX=1;exitY=0.5;exitDx=0;exitDy=0;entryX=0;entryY=0.5;entryDx=0;entryDy=0;" parent="1" source="Qt960FSY2KIb_zL32n8V-42" target="Qt960FSY2KIb_zL32n8V-44" edge="1">
          <mxGeometry relative="1" as="geometry" />
        </mxCell>
        <mxCell id="Qt960FSY2KIb_zL32n8V-47" style="edgeStyle=orthogonalEdgeStyle;rounded=0;orthogonalLoop=1;jettySize=auto;html=1;exitX=1;exitY=0.5;exitDx=0;exitDy=0;entryX=0;entryY=0.5;entryDx=0;entryDy=0;" parent="1" source="Qt960FSY2KIb_zL32n8V-42" target="Qt960FSY2KIb_zL32n8V-46" edge="1">
          <mxGeometry relative="1" as="geometry" />
        </mxCell>
        <mxCell id="Qt960FSY2KIb_zL32n8V-42" value="Paint" style="rounded=0;whiteSpace=wrap;html=1;" parent="1" vertex="1">
          <mxGeometry x="-2909" y="359" width="120" height="60" as="geometry" />
        </mxCell>
        <mxCell id="Qt960FSY2KIb_zL32n8V-44" value="Color" style="rounded=0;whiteSpace=wrap;html=1;" parent="1" vertex="1">
          <mxGeometry x="-2745" y="359" width="120" height="60" as="geometry" />
        </mxCell>
        <mxCell id="Qt960FSY2KIb_zL32n8V-46" value="Size" style="rounded=0;whiteSpace=wrap;html=1;" parent="1" vertex="1">
          <mxGeometry x="-2745" y="437" width="120" height="60" as="geometry" />
        </mxCell>
        <mxCell id="Qt960FSY2KIb_zL32n8V-50" value="Is Dragged" style="rounded=0;whiteSpace=wrap;html=1;" parent="1" vertex="1">
          <mxGeometry x="-2745" y="594" width="120" height="60" as="geometry" />
        </mxCell>
        <mxCell id="Qt960FSY2KIb_zL32n8V-51" value="etc" style="rounded=0;whiteSpace=wrap;html=1;" parent="1" vertex="1">
          <mxGeometry x="-2745" y="675" width="120" height="60" as="geometry" />
        </mxCell>
        <mxCell id="Qt960FSY2KIb_zL32n8V-58" style="edgeStyle=orthogonalEdgeStyle;rounded=0;orthogonalLoop=1;jettySize=auto;html=1;exitX=1;exitY=0.5;exitDx=0;exitDy=0;" parent="1" source="Qt960FSY2KIb_zL32n8V-54" target="Qt960FSY2KIb_zL32n8V-57" edge="1">
          <mxGeometry relative="1" as="geometry" />
        </mxCell>
        <mxCell id="Qt960FSY2KIb_zL32n8V-59" style="edgeStyle=orthogonalEdgeStyle;rounded=0;orthogonalLoop=1;jettySize=auto;html=1;exitX=1;exitY=0.5;exitDx=0;exitDy=0;entryX=0;entryY=0.5;entryDx=0;entryDy=0;" parent="1" source="Qt960FSY2KIb_zL32n8V-54" target="Qt960FSY2KIb_zL32n8V-50" edge="1">
          <mxGeometry relative="1" as="geometry" />
        </mxCell>
        <mxCell id="Qt960FSY2KIb_zL32n8V-60" style="edgeStyle=orthogonalEdgeStyle;rounded=0;orthogonalLoop=1;jettySize=auto;html=1;exitX=1;exitY=0.5;exitDx=0;exitDy=0;entryX=0;entryY=0.5;entryDx=0;entryDy=0;" parent="1" source="Qt960FSY2KIb_zL32n8V-54" target="Qt960FSY2KIb_zL32n8V-51" edge="1">
          <mxGeometry relative="1" as="geometry" />
        </mxCell>
        <mxCell id="Qt960FSY2KIb_zL32n8V-54" value="Events" style="rounded=0;whiteSpace=wrap;html=1;" parent="1" vertex="1">
          <mxGeometry x="-2909" y="515" width="120" height="60" as="geometry" />
        </mxCell>
        <mxCell id="Qt960FSY2KIb_zL32n8V-57" value="Is Pressed" style="rounded=0;whiteSpace=wrap;html=1;" parent="1" vertex="1">
          <mxGeometry x="-2745" y="515" width="120" height="60" as="geometry" />
        </mxCell>
        <mxCell id="oE3sUrrEDgutj43f_jL4-5" style="edgeStyle=orthogonalEdgeStyle;rounded=0;orthogonalLoop=1;jettySize=auto;html=1;exitX=1;exitY=0.5;exitDx=0;exitDy=0;entryX=0;entryY=0.5;entryDx=0;entryDy=0;" parent="1" source="Qt960FSY2KIb_zL32n8V-62" target="oE3sUrrEDgutj43f_jL4-1" edge="1">
          <mxGeometry relative="1" as="geometry" />
        </mxCell>
        <mxCell id="Qt960FSY2KIb_zL32n8V-62" value="Render Components" style="rounded=0;whiteSpace=wrap;html=1;" parent="1" vertex="1">
          <mxGeometry x="-2110" y="315" width="120" height="60" as="geometry" />
        </mxCell>
        <mxCell id="oE3sUrrEDgutj43f_jL4-6" style="edgeStyle=orthogonalEdgeStyle;rounded=0;orthogonalLoop=1;jettySize=auto;html=1;exitX=1;exitY=0.5;exitDx=0;exitDy=0;entryX=1;entryY=0.5;entryDx=0;entryDy=0;" parent="1" source="Qt960FSY2KIb_zL32n8V-64" target="oE3sUrrEDgutj43f_jL4-1" edge="1">
          <mxGeometry relative="1" as="geometry">
            <mxPoint x="-1768" y="345" as="targetPoint" />
          </mxGeometry>
        </mxCell>
        <mxCell id="Qt960FSY2KIb_zL32n8V-64" value="Shape" style="rounded=0;whiteSpace=wrap;html=1;" parent="1" vertex="1">
          <mxGeometry x="-1922" y="315" width="120" height="60" as="geometry" />
        </mxCell>
        <mxCell id="Qt960FSY2KIb_zL32n8V-72" value="Window Data" style="swimlane;fontStyle=0;childLayout=stackLayout;horizontal=1;startSize=30;horizontalStack=0;resizeParent=1;resizeParentMax=0;resizeLast=0;collapsible=1;marginBottom=0;whiteSpace=wrap;html=1;" parent="1" vertex="1">
          <mxGeometry x="-2512" y="469" width="432" height="150" as="geometry" />
        </mxCell>
        <mxCell id="Qt960FSY2KIb_zL32n8V-75" value="Add_Render_Component(WindowData,&amp;nbsp; WindowName)" style="text;strokeColor=none;fillColor=none;align=left;verticalAlign=middle;spacingLeft=4;spacingRight=4;overflow=hidden;points=[[0,0.5],[1,0.5]];portConstraint=eastwest;rotatable=0;whiteSpace=wrap;html=1;" parent="Qt960FSY2KIb_zL32n8V-72" vertex="1">
          <mxGeometry y="30" width="432" height="30" as="geometry" />
        </mxCell>
        <mxCell id="Qt960FSY2KIb_zL32n8V-76" value="Handle_Event(WindowData, WindowName,&amp;nbsp;" style="text;strokeColor=none;fillColor=none;align=left;verticalAlign=middle;spacingLeft=4;spacingRight=4;overflow=hidden;points=[[0,0.5],[1,0.5]];portConstraint=eastwest;rotatable=0;whiteSpace=wrap;html=1;" parent="Qt960FSY2KIb_zL32n8V-72" vertex="1">
          <mxGeometry y="60" width="432" height="30" as="geometry" />
        </mxCell>
        <mxCell id="kKMt6JEPOdrsDugL1P5y-2" value="Edit_Render_Component(WindowData, WindowName, render_component_id, function_pointer)" style="text;strokeColor=none;fillColor=none;align=left;verticalAlign=middle;spacingLeft=4;spacingRight=4;overflow=hidden;points=[[0,0.5],[1,0.5]];portConstraint=eastwest;rotatable=0;whiteSpace=wrap;html=1;" parent="Qt960FSY2KIb_zL32n8V-72" vertex="1">
          <mxGeometry y="90" width="432" height="30" as="geometry" />
        </mxCell>
        <mxCell id="kKMt6JEPOdrsDugL1P5y-1" value="Repaint_Window(WindowData, WindowName)" style="text;strokeColor=none;fillColor=none;align=left;verticalAlign=middle;spacingLeft=4;spacingRight=4;overflow=hidden;points=[[0,0.5],[1,0.5]];portConstraint=eastwest;rotatable=0;whiteSpace=wrap;html=1;" parent="Qt960FSY2KIb_zL32n8V-72" vertex="1">
          <mxGeometry y="120" width="432" height="30" as="geometry" />
        </mxCell>
        <mxCell id="kKMt6JEPOdrsDugL1P5y-5" value="Functions that use the data" style="text;html=1;align=center;verticalAlign=middle;whiteSpace=wrap;rounded=0;" parent="1" vertex="1">
          <mxGeometry x="-2382" y="433" width="150" height="30" as="geometry" />
        </mxCell>
        <mxCell id="kKMt6JEPOdrsDugL1P5y-6" value="Windows" style="swimlane;fontStyle=0;childLayout=stackLayout;horizontal=1;startSize=30;horizontalStack=0;resizeParent=1;resizeParentMax=0;resizeLast=0;collapsible=1;marginBottom=0;whiteSpace=wrap;html=1;" parent="1" vertex="1">
          <mxGeometry x="-2512" y="673" width="434" height="120" as="geometry" />
        </mxCell>
        <mxCell id="kKMt6JEPOdrsDugL1P5y-7" value="Create_Window(Windows, WindowName)" style="text;strokeColor=none;fillColor=none;align=left;verticalAlign=middle;spacingLeft=4;spacingRight=4;overflow=hidden;points=[[0,0.5],[1,0.5]];portConstraint=eastwest;rotatable=0;whiteSpace=wrap;html=1;" parent="kKMt6JEPOdrsDugL1P5y-6" vertex="1">
          <mxGeometry y="30" width="434" height="30" as="geometry" />
        </mxCell>
        <mxCell id="kKMt6JEPOdrsDugL1P5y-8" value="Item 2" style="text;strokeColor=none;fillColor=none;align=left;verticalAlign=middle;spacingLeft=4;spacingRight=4;overflow=hidden;points=[[0,0.5],[1,0.5]];portConstraint=eastwest;rotatable=0;whiteSpace=wrap;html=1;" parent="kKMt6JEPOdrsDugL1P5y-6" vertex="1">
          <mxGeometry y="60" width="434" height="30" as="geometry" />
        </mxCell>
        <mxCell id="kKMt6JEPOdrsDugL1P5y-9" value="Item 3" style="text;strokeColor=none;fillColor=none;align=left;verticalAlign=middle;spacingLeft=4;spacingRight=4;overflow=hidden;points=[[0,0.5],[1,0.5]];portConstraint=eastwest;rotatable=0;whiteSpace=wrap;html=1;" parent="kKMt6JEPOdrsDugL1P5y-6" vertex="1">
          <mxGeometry y="90" width="434" height="30" as="geometry" />
        </mxCell>
        <mxCell id="kKMt6JEPOdrsDugL1P5y-10" value="Windows" style="swimlane;fontStyle=0;childLayout=stackLayout;horizontal=1;startSize=30;horizontalStack=0;resizeParent=1;resizeParentMax=0;resizeLast=0;collapsible=1;marginBottom=0;whiteSpace=wrap;html=1;" parent="1" vertex="1">
          <mxGeometry x="-1188" y="214" width="140" height="149" as="geometry" />
        </mxCell>
        <mxCell id="kKMt6JEPOdrsDugL1P5y-41" value="State: {State}" style="text;strokeColor=none;fillColor=none;align=left;verticalAlign=middle;spacingLeft=4;spacingRight=4;overflow=hidden;points=[[0,0.5],[1,0.5]];portConstraint=eastwest;rotatable=0;whiteSpace=wrap;html=1;fontFamily=Helvetica;fontSize=11;fontColor=default;labelBackgroundColor=default;" parent="kKMt6JEPOdrsDugL1P5y-10" vertex="1">
          <mxGeometry y="30" width="140" height="30" as="geometry" />
        </mxCell>
        <mxCell id="kKMt6JEPOdrsDugL1P5y-11" value="Settings: {Settings}" style="text;strokeColor=none;fillColor=none;align=left;verticalAlign=middle;spacingLeft=4;spacingRight=4;overflow=hidden;points=[[0,0.5],[1,0.5]];portConstraint=eastwest;rotatable=0;whiteSpace=wrap;html=1;" parent="kKMt6JEPOdrsDugL1P5y-10" vertex="1">
          <mxGeometry y="60" width="140" height="30" as="geometry" />
        </mxCell>
        <mxCell id="kKMt6JEPOdrsDugL1P5y-13" value="Render Components {RenderLayerId: int} (unordered but can be ordered)" style="text;strokeColor=none;fillColor=none;align=left;verticalAlign=middle;spacingLeft=4;spacingRight=4;overflow=hidden;points=[[0,0.5],[1,0.5]];portConstraint=eastwest;rotatable=0;whiteSpace=wrap;html=1;" parent="kKMt6JEPOdrsDugL1P5y-10" vertex="1">
          <mxGeometry y="90" width="140" height="59" as="geometry" />
        </mxCell>
        <mxCell id="kKMt6JEPOdrsDugL1P5y-15" style="edgeStyle=orthogonalEdgeStyle;rounded=0;orthogonalLoop=1;jettySize=auto;html=1;exitX=0;exitY=0.5;exitDx=0;exitDy=0;endArrow=oval;endFill=1;strokeWidth=1;endSize=8;startSize=8;" parent="1" source="C1eJWSLk4wIL1Wj9dsw7-2" target="kKMt6JEPOdrsDugL1P5y-10" edge="1">
          <mxGeometry relative="1" as="geometry">
            <mxPoint x="-1118" y="154" as="sourcePoint" />
          </mxGeometry>
        </mxCell>
        <mxCell id="kKMt6JEPOdrsDugL1P5y-17" value="Settings" style="swimlane;fontStyle=0;childLayout=stackLayout;horizontal=1;startSize=30;horizontalStack=0;resizeParent=1;resizeParentMax=0;resizeLast=0;collapsible=1;marginBottom=0;whiteSpace=wrap;html=1;fontFamily=Helvetica;fontSize=11;fontColor=default;labelBackgroundColor=default;" parent="1" vertex="1">
          <mxGeometry x="-820" y="277" width="140" height="90" as="geometry" />
        </mxCell>
        <mxCell id="kKMt6JEPOdrsDugL1P5y-82" value="Title: string" style="text;strokeColor=none;fillColor=none;align=left;verticalAlign=middle;spacingLeft=4;spacingRight=4;overflow=hidden;points=[[0,0.5],[1,0.5]];portConstraint=eastwest;rotatable=0;whiteSpace=wrap;html=1;fontFamily=Helvetica;fontSize=11;fontColor=default;labelBackgroundColor=default;" parent="kKMt6JEPOdrsDugL1P5y-17" vertex="1">
          <mxGeometry y="30" width="140" height="30" as="geometry" />
        </mxCell>
        <mxCell id="kKMt6JEPOdrsDugL1P5y-18" value="Size: [int width, int height]" style="text;strokeColor=none;fillColor=none;align=left;verticalAlign=middle;spacingLeft=4;spacingRight=4;overflow=hidden;points=[[0,0.5],[1,0.5]];portConstraint=eastwest;rotatable=0;whiteSpace=wrap;html=1;fontFamily=Helvetica;fontSize=11;fontColor=default;labelBackgroundColor=default;" parent="kKMt6JEPOdrsDugL1P5y-17" vertex="1">
          <mxGeometry y="60" width="140" height="30" as="geometry" />
        </mxCell>
        <mxCell id="kKMt6JEPOdrsDugL1P5y-16" style="edgeStyle=orthogonalEdgeStyle;shape=connector;rounded=0;orthogonalLoop=1;jettySize=auto;html=1;strokeColor=default;strokeWidth=1;align=center;verticalAlign=middle;fontFamily=Helvetica;fontSize=11;fontColor=default;labelBackgroundColor=default;startSize=8;endArrow=classic;endFill=1;endSize=8;entryX=0.014;entryY=0.142;entryDx=0;entryDy=0;entryPerimeter=0;" parent="1" source="kKMt6JEPOdrsDugL1P5y-11" target="kKMt6JEPOdrsDugL1P5y-17" edge="1">
          <mxGeometry relative="1" as="geometry">
            <mxPoint x="-921" y="259" as="targetPoint" />
          </mxGeometry>
        </mxCell>
        <mxCell id="kKMt6JEPOdrsDugL1P5y-21" style="edgeStyle=orthogonalEdgeStyle;shape=connector;rounded=0;orthogonalLoop=1;jettySize=auto;html=1;strokeColor=default;strokeWidth=1;align=center;verticalAlign=middle;fontFamily=Helvetica;fontSize=11;fontColor=default;labelBackgroundColor=default;startSize=8;endArrow=classic;endFill=1;endSize=8;entryX=0.014;entryY=0.142;entryDx=0;entryDy=0;entryPerimeter=0;" parent="1" edge="1">
          <mxGeometry relative="1" as="geometry">
            <mxPoint x="-794" y="2" as="targetPoint" />
            <mxPoint x="-1041" y="2" as="sourcePoint" />
          </mxGeometry>
        </mxCell>
        <mxCell id="kKMt6JEPOdrsDugL1P5y-22" value="one-to-one" style="edgeLabel;html=1;align=center;verticalAlign=middle;resizable=0;points=[];fontFamily=Helvetica;fontSize=11;fontColor=default;labelBackgroundColor=default;" parent="kKMt6JEPOdrsDugL1P5y-21" vertex="1" connectable="0">
          <mxGeometry x="0.1336" y="-3" relative="1" as="geometry">
            <mxPoint as="offset" />
          </mxGeometry>
        </mxCell>
        <mxCell id="kKMt6JEPOdrsDugL1P5y-23" value="one-to-many" style="edgeStyle=orthogonalEdgeStyle;rounded=0;orthogonalLoop=1;jettySize=auto;html=1;endArrow=oval;endFill=1;strokeWidth=1;endSize=8;startSize=8;" parent="1" edge="1">
          <mxGeometry relative="1" as="geometry">
            <mxPoint x="-1037" y="-23" as="sourcePoint" />
            <mxPoint x="-802" y="-22" as="targetPoint" />
          </mxGeometry>
        </mxCell>
        <mxCell id="kKMt6JEPOdrsDugL1P5y-24" value="Many to Many" style="edgeStyle=orthogonalEdgeStyle;rounded=0;orthogonalLoop=1;jettySize=auto;html=1;endArrow=oval;endFill=1;strokeWidth=1;endSize=8;startSize=8;startArrow=oval;startFill=1;" parent="1" edge="1">
          <mxGeometry relative="1" as="geometry">
            <mxPoint x="-1038" y="-46" as="sourcePoint" />
            <mxPoint x="-803" y="-45" as="targetPoint" />
          </mxGeometry>
        </mxCell>
        <mxCell id="oE3sUrrEDgutj43f_jL4-1" value="Position" style="rounded=0;whiteSpace=wrap;html=1;" parent="1" vertex="1">
          <mxGeometry x="-1922" y="242" width="120" height="60" as="geometry" />
        </mxCell>
        <mxCell id="kKMt6JEPOdrsDugL1P5y-27" value="Render Component" style="swimlane;fontStyle=0;childLayout=stackLayout;horizontal=1;startSize=30;horizontalStack=0;resizeParent=1;resizeParentMax=0;resizeLast=0;collapsible=1;marginBottom=0;whiteSpace=wrap;html=1;fontFamily=Helvetica;fontSize=11;fontColor=default;labelBackgroundColor=default;" parent="1" vertex="1">
          <mxGeometry x="-864" y="382" width="140" height="120" as="geometry" />
        </mxCell>
        <mxCell id="kKMt6JEPOdrsDugL1P5y-28" value="Position: {Position}" style="text;strokeColor=none;fillColor=none;align=left;verticalAlign=middle;spacingLeft=4;spacingRight=4;overflow=hidden;points=[[0,0.5],[1,0.5]];portConstraint=eastwest;rotatable=0;whiteSpace=wrap;html=1;fontFamily=Helvetica;fontSize=11;fontColor=default;labelBackgroundColor=default;" parent="kKMt6JEPOdrsDugL1P5y-27" vertex="1">
          <mxGeometry y="30" width="140" height="30" as="geometry" />
        </mxCell>
        <mxCell id="kKMt6JEPOdrsDugL1P5y-30" value="Shape: {ShapeNameId: string}" style="text;strokeColor=none;fillColor=none;align=left;verticalAlign=middle;spacingLeft=4;spacingRight=4;overflow=hidden;points=[[0,0.5],[1,0.5]];portConstraint=eastwest;rotatable=0;whiteSpace=wrap;html=1;fontFamily=Helvetica;fontSize=11;fontColor=default;labelBackgroundColor=default;" parent="kKMt6JEPOdrsDugL1P5y-27" vertex="1">
          <mxGeometry y="60" width="140" height="30" as="geometry" />
        </mxCell>
        <mxCell id="kKMt6JEPOdrsDugL1P5y-71" value="Event: ?" style="text;strokeColor=none;fillColor=none;align=left;verticalAlign=middle;spacingLeft=4;spacingRight=4;overflow=hidden;points=[[0,0.5],[1,0.5]];portConstraint=eastwest;rotatable=0;whiteSpace=wrap;html=1;fontFamily=Helvetica;fontSize=11;fontColor=default;labelBackgroundColor=default;" parent="kKMt6JEPOdrsDugL1P5y-27" vertex="1">
          <mxGeometry y="90" width="140" height="30" as="geometry" />
        </mxCell>
        <mxCell id="kKMt6JEPOdrsDugL1P5y-26" style="edgeStyle=orthogonalEdgeStyle;shape=connector;rounded=0;orthogonalLoop=1;jettySize=auto;html=1;exitX=1;exitY=0.5;exitDx=0;exitDy=0;strokeColor=default;strokeWidth=1;align=center;verticalAlign=middle;fontFamily=Helvetica;fontSize=11;fontColor=default;labelBackgroundColor=default;startSize=8;endArrow=oval;endFill=1;endSize=8;entryX=0.007;entryY=0.125;entryDx=0;entryDy=0;entryPerimeter=0;" parent="1" source="kKMt6JEPOdrsDugL1P5y-13" target="kKMt6JEPOdrsDugL1P5y-27" edge="1">
          <mxGeometry relative="1" as="geometry">
            <mxPoint x="-915" y="455" as="targetPoint" />
          </mxGeometry>
        </mxCell>
        <mxCell id="oE3sUrrEDgutj43f_jL4-2" value="State" style="rounded=0;whiteSpace=wrap;html=1;" parent="1" vertex="1">
          <mxGeometry x="-2108" y="141" width="120" height="60" as="geometry" />
        </mxCell>
        <mxCell id="kKMt6JEPOdrsDugL1P5y-31" value="Position" style="swimlane;fontStyle=0;childLayout=stackLayout;horizontal=1;startSize=30;horizontalStack=0;resizeParent=1;resizeParentMax=0;resizeLast=0;collapsible=1;marginBottom=0;whiteSpace=wrap;html=1;fontFamily=Helvetica;fontSize=11;fontColor=default;labelBackgroundColor=default;" parent="1" vertex="1">
          <mxGeometry x="-537" y="375" width="140" height="60" as="geometry" />
        </mxCell>
        <mxCell id="kKMt6JEPOdrsDugL1P5y-32" value="Coordinates: [X, Y]" style="text;strokeColor=none;fillColor=none;align=left;verticalAlign=middle;spacingLeft=4;spacingRight=4;overflow=hidden;points=[[0,0.5],[1,0.5]];portConstraint=eastwest;rotatable=0;whiteSpace=wrap;html=1;fontFamily=Helvetica;fontSize=11;fontColor=default;labelBackgroundColor=default;" parent="kKMt6JEPOdrsDugL1P5y-31" vertex="1">
          <mxGeometry y="30" width="140" height="30" as="geometry" />
        </mxCell>
        <mxCell id="kKMt6JEPOdrsDugL1P5y-35" style="edgeStyle=orthogonalEdgeStyle;shape=connector;rounded=0;orthogonalLoop=1;jettySize=auto;html=1;exitX=1;exitY=0.5;exitDx=0;exitDy=0;entryX=0;entryY=0.108;entryDx=0;entryDy=0;strokeColor=default;strokeWidth=1;align=center;verticalAlign=middle;fontFamily=Helvetica;fontSize=11;fontColor=default;labelBackgroundColor=default;startSize=8;endArrow=classic;endFill=1;endSize=8;entryPerimeter=0;" parent="1" source="kKMt6JEPOdrsDugL1P5y-28" target="kKMt6JEPOdrsDugL1P5y-31" edge="1">
          <mxGeometry relative="1" as="geometry" />
        </mxCell>
        <mxCell id="kKMt6JEPOdrsDugL1P5y-42" value="Shape" style="swimlane;fontStyle=0;childLayout=stackLayout;horizontal=1;startSize=30;horizontalStack=0;resizeParent=1;resizeParentMax=0;resizeLast=0;collapsible=1;marginBottom=0;whiteSpace=wrap;html=1;fontFamily=Helvetica;fontSize=11;fontColor=default;labelBackgroundColor=default;" parent="1" vertex="1">
          <mxGeometry x="-537" y="467" width="140" height="150" as="geometry" />
        </mxCell>
        <mxCell id="kKMt6JEPOdrsDugL1P5y-43" value="Text: {Text}" style="text;strokeColor=none;fillColor=none;align=left;verticalAlign=middle;spacingLeft=4;spacingRight=4;overflow=hidden;points=[[0,0.5],[1,0.5]];portConstraint=eastwest;rotatable=0;whiteSpace=wrap;html=1;fontFamily=Helvetica;fontSize=11;fontColor=default;labelBackgroundColor=default;" parent="kKMt6JEPOdrsDugL1P5y-42" vertex="1">
          <mxGeometry y="30" width="140" height="30" as="geometry" />
        </mxCell>
        <mxCell id="kKMt6JEPOdrsDugL1P5y-44" value="Rectangle: {Rectangle}" style="text;strokeColor=none;fillColor=none;align=left;verticalAlign=middle;spacingLeft=4;spacingRight=4;overflow=hidden;points=[[0,0.5],[1,0.5]];portConstraint=eastwest;rotatable=0;whiteSpace=wrap;html=1;fontFamily=Helvetica;fontSize=11;fontColor=default;labelBackgroundColor=default;" parent="kKMt6JEPOdrsDugL1P5y-42" vertex="1">
          <mxGeometry y="60" width="140" height="30" as="geometry" />
        </mxCell>
        <mxCell id="kKMt6JEPOdrsDugL1P5y-45" value="DirectX: ?" style="text;strokeColor=none;fillColor=none;align=left;verticalAlign=middle;spacingLeft=4;spacingRight=4;overflow=hidden;points=[[0,0.5],[1,0.5]];portConstraint=eastwest;rotatable=0;whiteSpace=wrap;html=1;fontFamily=Helvetica;fontSize=11;fontColor=default;labelBackgroundColor=default;" parent="kKMt6JEPOdrsDugL1P5y-42" vertex="1">
          <mxGeometry y="90" width="140" height="30" as="geometry" />
        </mxCell>
        <mxCell id="kKMt6JEPOdrsDugL1P5y-47" value="LineCollection: ?" style="text;strokeColor=none;fillColor=none;align=left;verticalAlign=middle;spacingLeft=4;spacingRight=4;overflow=hidden;points=[[0,0.5],[1,0.5]];portConstraint=eastwest;rotatable=0;whiteSpace=wrap;html=1;fontFamily=Helvetica;fontSize=11;fontColor=default;labelBackgroundColor=default;" parent="kKMt6JEPOdrsDugL1P5y-42" vertex="1">
          <mxGeometry y="120" width="140" height="30" as="geometry" />
        </mxCell>
        <mxCell id="kKMt6JEPOdrsDugL1P5y-46" style="edgeStyle=orthogonalEdgeStyle;shape=connector;rounded=0;orthogonalLoop=1;jettySize=auto;html=1;exitX=1;exitY=0.5;exitDx=0;exitDy=0;entryX=0.007;entryY=0.133;entryDx=0;entryDy=0;entryPerimeter=0;strokeColor=default;strokeWidth=1;align=center;verticalAlign=middle;fontFamily=Helvetica;fontSize=11;fontColor=default;labelBackgroundColor=default;startSize=8;endArrow=oval;endFill=1;endSize=8;" parent="1" source="kKMt6JEPOdrsDugL1P5y-30" target="kKMt6JEPOdrsDugL1P5y-42" edge="1">
          <mxGeometry relative="1" as="geometry">
            <Array as="points">
              <mxPoint x="-590" y="457" />
              <mxPoint x="-590" y="487" />
            </Array>
          </mxGeometry>
        </mxCell>
        <mxCell id="kKMt6JEPOdrsDugL1P5y-48" value="Text" style="swimlane;fontStyle=0;childLayout=stackLayout;horizontal=1;startSize=30;horizontalStack=0;resizeParent=1;resizeParentMax=0;resizeLast=0;collapsible=1;marginBottom=0;whiteSpace=wrap;html=1;fontFamily=Helvetica;fontSize=11;fontColor=default;labelBackgroundColor=default;" parent="1" vertex="1">
          <mxGeometry x="-221" y="469" width="140" height="60" as="geometry" />
        </mxCell>
        <mxCell id="kKMt6JEPOdrsDugL1P5y-49" value="SText: string" style="text;strokeColor=none;fillColor=none;align=left;verticalAlign=middle;spacingLeft=4;spacingRight=4;overflow=hidden;points=[[0,0.5],[1,0.5]];portConstraint=eastwest;rotatable=0;whiteSpace=wrap;html=1;fontFamily=Helvetica;fontSize=11;fontColor=default;labelBackgroundColor=default;" parent="kKMt6JEPOdrsDugL1P5y-48" vertex="1">
          <mxGeometry y="30" width="140" height="30" as="geometry" />
        </mxCell>
        <mxCell id="kKMt6JEPOdrsDugL1P5y-52" style="edgeStyle=orthogonalEdgeStyle;shape=connector;rounded=0;orthogonalLoop=1;jettySize=auto;html=1;exitX=1;exitY=0.5;exitDx=0;exitDy=0;entryX=0;entryY=0.25;entryDx=0;entryDy=0;strokeColor=default;strokeWidth=1;align=center;verticalAlign=middle;fontFamily=Helvetica;fontSize=11;fontColor=default;labelBackgroundColor=default;startSize=8;endArrow=oval;endFill=1;endSize=8;" parent="1" source="kKMt6JEPOdrsDugL1P5y-43" target="kKMt6JEPOdrsDugL1P5y-48" edge="1">
          <mxGeometry relative="1" as="geometry" />
        </mxCell>
        <mxCell id="kKMt6JEPOdrsDugL1P5y-53" value="Rectangle" style="swimlane;fontStyle=0;childLayout=stackLayout;horizontal=1;startSize=30;horizontalStack=0;resizeParent=1;resizeParentMax=0;resizeLast=0;collapsible=1;marginBottom=0;whiteSpace=wrap;html=1;fontFamily=Helvetica;fontSize=11;fontColor=default;labelBackgroundColor=default;" parent="1" vertex="1">
          <mxGeometry x="-221" y="538" width="140" height="60" as="geometry" />
        </mxCell>
        <mxCell id="kKMt6JEPOdrsDugL1P5y-54" value="Position" style="text;strokeColor=none;fillColor=none;align=left;verticalAlign=middle;spacingLeft=4;spacingRight=4;overflow=hidden;points=[[0,0.5],[1,0.5]];portConstraint=eastwest;rotatable=0;whiteSpace=wrap;html=1;fontFamily=Helvetica;fontSize=11;fontColor=default;labelBackgroundColor=default;" parent="kKMt6JEPOdrsDugL1P5y-53" vertex="1">
          <mxGeometry y="30" width="140" height="30" as="geometry" />
        </mxCell>
        <mxCell id="kKMt6JEPOdrsDugL1P5y-57" style="edgeStyle=orthogonalEdgeStyle;shape=connector;rounded=0;orthogonalLoop=1;jettySize=auto;html=1;exitX=1;exitY=0.5;exitDx=0;exitDy=0;entryX=0.993;entryY=0.122;entryDx=0;entryDy=0;entryPerimeter=0;strokeColor=default;strokeWidth=1;align=center;verticalAlign=middle;fontFamily=Helvetica;fontSize=11;fontColor=default;labelBackgroundColor=default;startSize=8;endArrow=classic;endFill=1;endSize=8;" parent="1" source="kKMt6JEPOdrsDugL1P5y-54" target="kKMt6JEPOdrsDugL1P5y-31" edge="1">
          <mxGeometry relative="1" as="geometry" />
        </mxCell>
        <mxCell id="kKMt6JEPOdrsDugL1P5y-58" style="edgeStyle=orthogonalEdgeStyle;shape=connector;rounded=0;orthogonalLoop=1;jettySize=auto;html=1;exitX=1;exitY=0.5;exitDx=0;exitDy=0;entryX=0;entryY=0.25;entryDx=0;entryDy=0;strokeColor=default;strokeWidth=1;align=center;verticalAlign=middle;fontFamily=Helvetica;fontSize=11;fontColor=default;labelBackgroundColor=default;startSize=8;endArrow=oval;endFill=1;endSize=8;" parent="1" source="kKMt6JEPOdrsDugL1P5y-44" target="kKMt6JEPOdrsDugL1P5y-53" edge="1">
          <mxGeometry relative="1" as="geometry" />
        </mxCell>
        <mxCell id="kKMt6JEPOdrsDugL1P5y-59" value="To be determined" style="rounded=0;whiteSpace=wrap;html=1;fontFamily=Helvetica;fontSize=11;fontColor=default;labelBackgroundColor=default;" parent="1" vertex="1">
          <mxGeometry x="-330" y="643" width="120" height="60" as="geometry" />
        </mxCell>
        <mxCell id="kKMt6JEPOdrsDugL1P5y-60" style="edgeStyle=orthogonalEdgeStyle;shape=connector;rounded=0;orthogonalLoop=1;jettySize=auto;html=1;exitX=1;exitY=0.5;exitDx=0;exitDy=0;strokeColor=default;strokeWidth=1;align=center;verticalAlign=middle;fontFamily=Helvetica;fontSize=11;fontColor=default;labelBackgroundColor=default;startSize=8;endArrow=classic;endFill=1;endSize=8;" parent="1" source="kKMt6JEPOdrsDugL1P5y-45" target="kKMt6JEPOdrsDugL1P5y-59" edge="1">
          <mxGeometry relative="1" as="geometry" />
        </mxCell>
        <mxCell id="kKMt6JEPOdrsDugL1P5y-61" style="edgeStyle=orthogonalEdgeStyle;shape=connector;rounded=0;orthogonalLoop=1;jettySize=auto;html=1;exitX=1;exitY=0.5;exitDx=0;exitDy=0;strokeColor=default;strokeWidth=1;align=center;verticalAlign=middle;fontFamily=Helvetica;fontSize=11;fontColor=default;labelBackgroundColor=default;startSize=8;endArrow=classic;endFill=1;endSize=8;" parent="1" source="kKMt6JEPOdrsDugL1P5y-47" target="kKMt6JEPOdrsDugL1P5y-59" edge="1">
          <mxGeometry relative="1" as="geometry" />
        </mxCell>
        <mxCell id="kKMt6JEPOdrsDugL1P5y-62" value="State" style="swimlane;fontStyle=0;childLayout=stackLayout;horizontal=1;startSize=30;horizontalStack=0;resizeParent=1;resizeParentMax=0;resizeLast=0;collapsible=1;marginBottom=0;whiteSpace=wrap;html=1;fontFamily=Helvetica;fontSize=11;fontColor=default;labelBackgroundColor=default;" parent="1" vertex="1">
          <mxGeometry x="-864" y="142" width="140" height="103" as="geometry" />
        </mxCell>
        <mxCell id="kKMt6JEPOdrsDugL1P5y-63" value="Handle: (HWND) int (When the program starts, this should be null)" style="text;strokeColor=none;fillColor=none;align=left;verticalAlign=middle;spacingLeft=4;spacingRight=4;overflow=hidden;points=[[0,0.5],[1,0.5]];portConstraint=eastwest;rotatable=0;whiteSpace=wrap;html=1;fontFamily=Helvetica;fontSize=11;fontColor=default;labelBackgroundColor=default;" parent="kKMt6JEPOdrsDugL1P5y-62" vertex="1">
          <mxGeometry y="30" width="140" height="43" as="geometry" />
        </mxCell>
        <mxCell id="kKMt6JEPOdrsDugL1P5y-64" value="Show: bool" style="text;strokeColor=none;fillColor=none;align=left;verticalAlign=middle;spacingLeft=4;spacingRight=4;overflow=hidden;points=[[0,0.5],[1,0.5]];portConstraint=eastwest;rotatable=0;whiteSpace=wrap;html=1;fontFamily=Helvetica;fontSize=11;fontColor=default;labelBackgroundColor=default;" parent="kKMt6JEPOdrsDugL1P5y-62" vertex="1">
          <mxGeometry y="73" width="140" height="30" as="geometry" />
        </mxCell>
        <mxCell id="kKMt6JEPOdrsDugL1P5y-66" style="edgeStyle=orthogonalEdgeStyle;shape=connector;rounded=0;orthogonalLoop=1;jettySize=auto;html=1;exitX=1;exitY=0.5;exitDx=0;exitDy=0;entryX=0;entryY=0.125;entryDx=0;entryDy=0;entryPerimeter=0;strokeColor=default;strokeWidth=1;align=center;verticalAlign=middle;fontFamily=Helvetica;fontSize=11;fontColor=default;labelBackgroundColor=default;startSize=8;endArrow=classic;endFill=1;endSize=8;" parent="1" source="kKMt6JEPOdrsDugL1P5y-41" target="kKMt6JEPOdrsDugL1P5y-62" edge="1">
          <mxGeometry relative="1" as="geometry" />
        </mxCell>
        <mxCell id="Qt960FSY2KIb_zL32n8V-63" style="edgeStyle=orthogonalEdgeStyle;rounded=0;orthogonalLoop=1;jettySize=auto;html=1;exitX=1;exitY=0.5;exitDx=0;exitDy=0;entryX=0;entryY=0.5;entryDx=0;entryDy=0;endArrow=oval;endFill=1;" parent="1" source="Qt960FSY2KIb_zL32n8V-30" target="Qt960FSY2KIb_zL32n8V-62" edge="1">
          <mxGeometry relative="1" as="geometry" />
        </mxCell>
        <mxCell id="Qt960FSY2KIb_zL32n8V-65" style="edgeStyle=orthogonalEdgeStyle;rounded=0;orthogonalLoop=1;jettySize=auto;html=1;exitX=1;exitY=0.5;exitDx=0;exitDy=0;entryX=0;entryY=0.5;entryDx=0;entryDy=0;endArrow=oval;endFill=1;" parent="1" source="Qt960FSY2KIb_zL32n8V-62" target="Qt960FSY2KIb_zL32n8V-64" edge="1">
          <mxGeometry relative="1" as="geometry" />
        </mxCell>
        <mxCell id="Qt960FSY2KIb_zL32n8V-29" style="edgeStyle=orthogonalEdgeStyle;rounded=0;orthogonalLoop=1;jettySize=auto;html=1;exitX=1;exitY=0.5;exitDx=0;exitDy=0;entryX=0;entryY=0.5;entryDx=0;entryDy=0;endArrow=oval;endFill=1;" parent="1" source="Qt960FSY2KIb_zL32n8V-27" target="Qt960FSY2KIb_zL32n8V-30" edge="1">
          <mxGeometry relative="1" as="geometry">
            <mxPoint x="-2306" y="98.00000000000011" as="targetPoint" />
          </mxGeometry>
        </mxCell>
        <mxCell id="kKMt6JEPOdrsDugL1P5y-67" value="Event" style="swimlane;fontStyle=0;childLayout=stackLayout;horizontal=1;startSize=30;horizontalStack=0;resizeParent=1;resizeParentMax=0;resizeLast=0;collapsible=1;marginBottom=0;whiteSpace=wrap;html=1;fontFamily=Helvetica;fontSize=11;fontColor=default;labelBackgroundColor=default;" parent="1" vertex="1">
          <mxGeometry x="-537" y="755" width="140" height="120" as="geometry" />
        </mxCell>
        <mxCell id="kKMt6JEPOdrsDugL1P5y-68" value="LeftClick" style="text;strokeColor=none;fillColor=none;align=left;verticalAlign=middle;spacingLeft=4;spacingRight=4;overflow=hidden;points=[[0,0.5],[1,0.5]];portConstraint=eastwest;rotatable=0;whiteSpace=wrap;html=1;fontFamily=Helvetica;fontSize=11;fontColor=default;labelBackgroundColor=default;" parent="kKMt6JEPOdrsDugL1P5y-67" vertex="1">
          <mxGeometry y="30" width="140" height="30" as="geometry" />
        </mxCell>
        <mxCell id="kKMt6JEPOdrsDugL1P5y-69" value="Item 2" style="text;strokeColor=none;fillColor=none;align=left;verticalAlign=middle;spacingLeft=4;spacingRight=4;overflow=hidden;points=[[0,0.5],[1,0.5]];portConstraint=eastwest;rotatable=0;whiteSpace=wrap;html=1;fontFamily=Helvetica;fontSize=11;fontColor=default;labelBackgroundColor=default;" parent="kKMt6JEPOdrsDugL1P5y-67" vertex="1">
          <mxGeometry y="60" width="140" height="30" as="geometry" />
        </mxCell>
        <mxCell id="kKMt6JEPOdrsDugL1P5y-70" value="Item 3" style="text;strokeColor=none;fillColor=none;align=left;verticalAlign=middle;spacingLeft=4;spacingRight=4;overflow=hidden;points=[[0,0.5],[1,0.5]];portConstraint=eastwest;rotatable=0;whiteSpace=wrap;html=1;fontFamily=Helvetica;fontSize=11;fontColor=default;labelBackgroundColor=default;" parent="kKMt6JEPOdrsDugL1P5y-67" vertex="1">
          <mxGeometry y="90" width="140" height="30" as="geometry" />
        </mxCell>
        <mxCell id="kKMt6JEPOdrsDugL1P5y-73" value="LeftClick" style="swimlane;fontStyle=0;childLayout=stackLayout;horizontal=1;startSize=30;horizontalStack=0;resizeParent=1;resizeParentMax=0;resizeLast=0;collapsible=1;marginBottom=0;whiteSpace=wrap;html=1;fontFamily=Helvetica;fontSize=11;fontColor=default;labelBackgroundColor=default;" parent="1" vertex="1">
          <mxGeometry x="-340" y="755" width="140" height="120" as="geometry" />
        </mxCell>
        <mxCell id="kKMt6JEPOdrsDugL1P5y-74" value="Item 1" style="text;strokeColor=none;fillColor=none;align=left;verticalAlign=middle;spacingLeft=4;spacingRight=4;overflow=hidden;points=[[0,0.5],[1,0.5]];portConstraint=eastwest;rotatable=0;whiteSpace=wrap;html=1;fontFamily=Helvetica;fontSize=11;fontColor=default;labelBackgroundColor=default;" parent="kKMt6JEPOdrsDugL1P5y-73" vertex="1">
          <mxGeometry y="30" width="140" height="30" as="geometry" />
        </mxCell>
        <mxCell id="kKMt6JEPOdrsDugL1P5y-75" value="Item 2" style="text;strokeColor=none;fillColor=none;align=left;verticalAlign=middle;spacingLeft=4;spacingRight=4;overflow=hidden;points=[[0,0.5],[1,0.5]];portConstraint=eastwest;rotatable=0;whiteSpace=wrap;html=1;fontFamily=Helvetica;fontSize=11;fontColor=default;labelBackgroundColor=default;" parent="kKMt6JEPOdrsDugL1P5y-73" vertex="1">
          <mxGeometry y="60" width="140" height="30" as="geometry" />
        </mxCell>
        <mxCell id="kKMt6JEPOdrsDugL1P5y-76" value="Item 3" style="text;strokeColor=none;fillColor=none;align=left;verticalAlign=middle;spacingLeft=4;spacingRight=4;overflow=hidden;points=[[0,0.5],[1,0.5]];portConstraint=eastwest;rotatable=0;whiteSpace=wrap;html=1;fontFamily=Helvetica;fontSize=11;fontColor=default;labelBackgroundColor=default;" parent="kKMt6JEPOdrsDugL1P5y-73" vertex="1">
          <mxGeometry y="90" width="140" height="30" as="geometry" />
        </mxCell>
        <mxCell id="oE3sUrrEDgutj43f_jL4-8" value="Text" style="rounded=0;whiteSpace=wrap;html=1;" parent="1" vertex="1">
          <mxGeometry x="-1737" y="315" width="120" height="60" as="geometry" />
        </mxCell>
        <mxCell id="kKMt6JEPOdrsDugL1P5y-77" style="edgeStyle=orthogonalEdgeStyle;shape=connector;rounded=0;orthogonalLoop=1;jettySize=auto;html=1;exitX=1;exitY=0.5;exitDx=0;exitDy=0;entryX=0.021;entryY=0.117;entryDx=0;entryDy=0;entryPerimeter=0;strokeColor=default;strokeWidth=1;align=center;verticalAlign=middle;fontFamily=Helvetica;fontSize=11;fontColor=default;labelBackgroundColor=default;startSize=8;endArrow=classic;endFill=1;endSize=8;" parent="1" source="kKMt6JEPOdrsDugL1P5y-68" target="kKMt6JEPOdrsDugL1P5y-73" edge="1">
          <mxGeometry relative="1" as="geometry" />
        </mxCell>
        <mxCell id="oE3sUrrEDgutj43f_jL4-9" style="edgeStyle=orthogonalEdgeStyle;rounded=0;orthogonalLoop=1;jettySize=auto;html=1;exitX=1;exitY=0.5;exitDx=0;exitDy=0;entryX=0;entryY=0.5;entryDx=0;entryDy=0;endArrow=oval;endFill=1;" parent="1" source="Qt960FSY2KIb_zL32n8V-64" target="oE3sUrrEDgutj43f_jL4-8" edge="1">
          <mxGeometry relative="1" as="geometry" />
        </mxCell>
        <mxCell id="kKMt6JEPOdrsDugL1P5y-78" value="&lt;h1 style=&quot;margin-top: 0px;&quot;&gt;Problem: Event Handling&lt;/h1&gt;&lt;p&gt;How do I handle events? I could create endless events, but I want a way to specify a function when a event get&#39;s called.&amp;nbsp;&lt;/p&gt;&lt;p&gt;How do I know if I&#39;m in the bounds of my shapes?&lt;/p&gt;&lt;p&gt;I will think and find out a solution when I know more about the coding side of things.&lt;/p&gt;" style="text;html=1;whiteSpace=wrap;overflow=hidden;rounded=0;fontFamily=Helvetica;fontSize=11;fontColor=default;labelBackgroundColor=default;" parent="1" vertex="1">
          <mxGeometry x="-949" y="649" width="303" height="120" as="geometry" />
        </mxCell>
        <mxCell id="kKMt6JEPOdrsDugL1P5y-79" style="edgeStyle=orthogonalEdgeStyle;shape=connector;rounded=0;orthogonalLoop=1;jettySize=auto;html=1;exitX=1;exitY=0.5;exitDx=0;exitDy=0;entryX=0.007;entryY=0.125;entryDx=0;entryDy=0;entryPerimeter=0;strokeColor=default;strokeWidth=1;align=center;verticalAlign=middle;fontFamily=Helvetica;fontSize=11;fontColor=default;labelBackgroundColor=default;startSize=8;endArrow=classic;endFill=1;endSize=8;" parent="1" source="kKMt6JEPOdrsDugL1P5y-71" target="kKMt6JEPOdrsDugL1P5y-67" edge="1">
          <mxGeometry relative="1" as="geometry" />
        </mxCell>
        <mxCell id="oE3sUrrEDgutj43f_jL4-10" value="Rectangle" style="rounded=0;whiteSpace=wrap;html=1;" parent="1" vertex="1">
          <mxGeometry x="-1737" y="387" width="120" height="60" as="geometry" />
        </mxCell>
        <mxCell id="oE3sUrrEDgutj43f_jL4-11" value="DirectX" style="rounded=0;whiteSpace=wrap;html=1;" parent="1" vertex="1">
          <mxGeometry x="-1737" y="459" width="120" height="60" as="geometry" />
        </mxCell>
        <mxCell id="oE3sUrrEDgutj43f_jL4-12" value="LineCollection" style="rounded=0;whiteSpace=wrap;html=1;" parent="1" vertex="1">
          <mxGeometry x="-1737" y="532" width="120" height="60" as="geometry" />
        </mxCell>
        <mxCell id="oE3sUrrEDgutj43f_jL4-13" style="edgeStyle=orthogonalEdgeStyle;rounded=0;orthogonalLoop=1;jettySize=auto;html=1;exitX=1;exitY=0.5;exitDx=0;exitDy=0;entryX=0;entryY=0.5;entryDx=0;entryDy=0;endArrow=oval;endFill=1;" parent="1" source="Qt960FSY2KIb_zL32n8V-64" target="oE3sUrrEDgutj43f_jL4-10" edge="1">
          <mxGeometry relative="1" as="geometry" />
        </mxCell>
        <mxCell id="oE3sUrrEDgutj43f_jL4-14" style="edgeStyle=orthogonalEdgeStyle;rounded=0;orthogonalLoop=1;jettySize=auto;html=1;exitX=1;exitY=0.5;exitDx=0;exitDy=0;entryX=0;entryY=0.5;entryDx=0;entryDy=0;endArrow=oval;endFill=1;" parent="1" source="Qt960FSY2KIb_zL32n8V-64" target="oE3sUrrEDgutj43f_jL4-11" edge="1">
          <mxGeometry relative="1" as="geometry" />
        </mxCell>
        <mxCell id="oE3sUrrEDgutj43f_jL4-15" style="edgeStyle=orthogonalEdgeStyle;rounded=0;orthogonalLoop=1;jettySize=auto;html=1;exitX=1;exitY=0.5;exitDx=0;exitDy=0;entryX=0;entryY=0.5;entryDx=0;entryDy=0;endArrow=oval;endFill=1;" parent="1" source="Qt960FSY2KIb_zL32n8V-64" target="oE3sUrrEDgutj43f_jL4-12" edge="1">
          <mxGeometry relative="1" as="geometry" />
        </mxCell>
        <mxCell id="kKMt6JEPOdrsDugL1P5y-81" style="edgeStyle=orthogonalEdgeStyle;shape=connector;rounded=0;orthogonalLoop=1;jettySize=auto;html=1;exitX=0.5;exitY=1;exitDx=0;exitDy=0;strokeColor=default;strokeWidth=1;align=center;verticalAlign=middle;fontFamily=Helvetica;fontSize=11;fontColor=default;labelBackgroundColor=default;startSize=8;endArrow=classic;endFill=1;endSize=8;" parent="1" source="kKMt6JEPOdrsDugL1P5y-80" edge="1">
          <mxGeometry relative="1" as="geometry">
            <mxPoint x="-456" y="360" as="targetPoint" />
          </mxGeometry>
        </mxCell>
        <mxCell id="kKMt6JEPOdrsDugL1P5y-80" value="Add alignment in the future" style="text;html=1;align=center;verticalAlign=middle;whiteSpace=wrap;rounded=0;fontFamily=Helvetica;fontSize=11;fontColor=default;labelBackgroundColor=default;" parent="1" vertex="1">
          <mxGeometry x="-511" y="295" width="110" height="30" as="geometry" />
        </mxCell>
        <mxCell id="C1eJWSLk4wIL1Wj9dsw7-1" value="WindowData" style="swimlane;fontStyle=0;childLayout=stackLayout;horizontal=1;startSize=30;horizontalStack=0;resizeParent=1;resizeParentMax=0;resizeLast=0;collapsible=1;marginBottom=0;whiteSpace=wrap;html=1;" vertex="1" parent="1">
          <mxGeometry x="-1193" y="102" width="140" height="60" as="geometry" />
        </mxCell>
        <mxCell id="C1eJWSLk4wIL1Wj9dsw7-2" value="Windows: {WindowNameId: string}" style="text;strokeColor=none;fillColor=none;align=left;verticalAlign=middle;spacingLeft=4;spacingRight=4;overflow=hidden;points=[[0,0.5],[1,0.5]];portConstraint=eastwest;rotatable=0;whiteSpace=wrap;html=1;" vertex="1" parent="C1eJWSLk4wIL1Wj9dsw7-1">
          <mxGeometry y="30" width="140" height="30" as="geometry" />
        </mxCell>
      </root>
    </mxGraphModel>
  </diagram>
  <diagram name="Program Flow" id="8UWnzZh6Zb71KIH3Xfgz">
    <mxGraphModel dx="1434" dy="844" grid="0" gridSize="10" guides="1" tooltips="1" connect="1" arrows="1" fold="1" page="0" pageScale="1" pageWidth="850" pageHeight="1100" math="0" shadow="0">
      <root>
        <mxCell id="0" />
        <mxCell id="1" parent="0" />
        <mxCell id="8zpjzQf2omMvxHvENyCF-1" style="edgeStyle=orthogonalEdgeStyle;rounded=0;orthogonalLoop=1;jettySize=auto;html=1;entryX=0.5;entryY=0;entryDx=0;entryDy=0;" edge="1" parent="1" source="YeYjp0__8qihfpiowBRM-4" target="YeYjp0__8qihfpiowBRM-22">
          <mxGeometry relative="1" as="geometry" />
        </mxCell>
        <mxCell id="YeYjp0__8qihfpiowBRM-4" value="Main" style="rounded=0;whiteSpace=wrap;html=1;" parent="1" vertex="1">
          <mxGeometry x="378" y="29" width="120" height="60" as="geometry" />
        </mxCell>
        <mxCell id="YeYjp0__8qihfpiowBRM-22" value="Show Graphical Window" style="swimlane;whiteSpace=wrap;html=1;startSize=23;" parent="1" vertex="1">
          <mxGeometry x="206" y="508" width="464" height="413" as="geometry" />
        </mxCell>
        <mxCell id="YeYjp0__8qihfpiowBRM-27" style="edgeStyle=orthogonalEdgeStyle;rounded=0;orthogonalLoop=1;jettySize=auto;html=1;" parent="YeYjp0__8qihfpiowBRM-22" source="YeYjp0__8qihfpiowBRM-24" target="YeYjp0__8qihfpiowBRM-26" edge="1">
          <mxGeometry relative="1" as="geometry" />
        </mxCell>
        <mxCell id="YeYjp0__8qihfpiowBRM-24" value="Initialize OpenGL" style="rounded=0;whiteSpace=wrap;html=1;" parent="YeYjp0__8qihfpiowBRM-22" vertex="1">
          <mxGeometry x="172" y="34" width="120" height="60" as="geometry" />
        </mxCell>
        <mxCell id="YeYjp0__8qihfpiowBRM-28" value="No" style="edgeStyle=orthogonalEdgeStyle;rounded=0;orthogonalLoop=1;jettySize=auto;html=1;" parent="YeYjp0__8qihfpiowBRM-22" source="YeYjp0__8qihfpiowBRM-26" edge="1">
          <mxGeometry relative="1" as="geometry">
            <mxPoint x="335" y="168" as="targetPoint" />
          </mxGeometry>
        </mxCell>
        <mxCell id="YeYjp0__8qihfpiowBRM-30" value="Yes" style="edgeStyle=orthogonalEdgeStyle;rounded=0;orthogonalLoop=1;jettySize=auto;html=1;" parent="YeYjp0__8qihfpiowBRM-22" source="YeYjp0__8qihfpiowBRM-26" target="YeYjp0__8qihfpiowBRM-31" edge="1">
          <mxGeometry relative="1" as="geometry">
            <mxPoint x="232" y="243" as="targetPoint" />
          </mxGeometry>
        </mxCell>
        <mxCell id="YeYjp0__8qihfpiowBRM-26" value="Is OpenGL 3.3 or higher?" style="rhombus;whiteSpace=wrap;html=1;" parent="YeYjp0__8qihfpiowBRM-22" vertex="1">
          <mxGeometry x="192" y="128" width="80" height="80" as="geometry" />
        </mxCell>
        <mxCell id="YeYjp0__8qihfpiowBRM-29" value="Show Error and exit program" style="rounded=0;whiteSpace=wrap;html=1;" parent="YeYjp0__8qihfpiowBRM-22" vertex="1">
          <mxGeometry x="336" y="144" width="120" height="60" as="geometry" />
        </mxCell>
        <mxCell id="YeYjp0__8qihfpiowBRM-35" style="edgeStyle=orthogonalEdgeStyle;rounded=0;orthogonalLoop=1;jettySize=auto;html=1;" parent="YeYjp0__8qihfpiowBRM-22" source="YeYjp0__8qihfpiowBRM-31" target="YeYjp0__8qihfpiowBRM-32" edge="1">
          <mxGeometry relative="1" as="geometry" />
        </mxCell>
        <mxCell id="YeYjp0__8qihfpiowBRM-31" value="Initialize game scripts" style="rounded=0;whiteSpace=wrap;html=1;" parent="YeYjp0__8qihfpiowBRM-22" vertex="1">
          <mxGeometry x="172" y="248" width="120" height="60" as="geometry" />
        </mxCell>
        <mxCell id="YeYjp0__8qihfpiowBRM-32" value="Create and show Window" style="rounded=0;whiteSpace=wrap;html=1;" parent="YeYjp0__8qihfpiowBRM-22" vertex="1">
          <mxGeometry x="172" y="332" width="120" height="60" as="geometry" />
        </mxCell>
      </root>
    </mxGraphModel>
  </diagram>
</mxfile>
